# xmcd
#
# Track frame offsets: 
#        150
#        13129
#        37048
#        45876
#        78388
#        94885
#        109556
#        129282
#        142380
#        155416
#        168781
#        181245
#        192416
#        222562
#        240126
#        250635
#        260408
#        268852
#        282351
#        291211
#        305771
#        320635
#
# Disc length: 4449 seconds
#
# Revision: 0
# Processed by: cddbd v1.5.2PL0 Copyright (c) Steve Scherf et al.
# Submitted via: ExactAudioCopy v1.3
#
DISCID=3e115f16
DTITLE=Various Artist - Luzine CD1
DYEAR=2003
DGENRE=Southern Rock
TTITLE0=Ramsey Lewis Trio - Lonely Avenue
TTITLE1=The Ventures - Honky Tonk
TTITLE2=Bill Doggett - That's Enough, Lock 'M Up!
TTITLE3=Milt Buckner - Green Onions
TTITLE4=Tony Joe White - Polk Salad Annie
TTITLE5=Mercy - The Third Degree
TTITLE6=Wild Bill Davis - Impulsions
TTITLE7=Asleep at the Wheel - Choo Choo Ch'Boogie
TTITLE8=James Brown - There Ain't Nobody Here But Us Chickens
TTITLE9=Jackie Wilson - Baby Workout
TTITLE10=Marvin Gaye - Can I Get A Witness
TTITLE11=Sandy Nelson - Drums A Go-Go
TTITLE12=Ivan "Boogaloo Joe" Jones - Black Whip
TTITLE13=Jimmy McGriff - All About My Girl
TTITLE14=Claude Bolling - Theme From Borsalino
TTITLE15=Bull Moose Jackson and His Buffalo Bearcats - Big Ten Inch Reco
TTITLE15=rd
TTITLE16=Colin James - Breakin' Up The House
TTITLE17=Jaye Bros. - Rag Mop
TTITLE18=The Merced Blue Notes - Mama Rufus
TTITLE19=Mose Allison - Parchman Farm
TTITLE20=Raphael Saadiq - Day Dreams
TTITLE21=Amos Milburn - One Bourbon, One Scotch, One Beer
EXTD=
EXTT0=
EXTT1=
EXTT2=
EXTT3=
EXTT4=
EXTT5=
EXTT6=
EXTT7=
EXTT8=
EXTT9=
EXTT10=
EXTT11=
EXTT12=
EXTT13=
EXTT14=
EXTT15=
EXTT16=
EXTT17=
EXTT18=
EXTT19=
EXTT20=
EXTT21=
PLAYORDER=
